{"glyphs":{" ":{"ha":278,"x_min":0,"x_max":0,"o":""},"A":{"ha":838,"x_min":-3,"x_max":840,"o":"m 617 661 q 625 585 625 643 q 604 344 624 504 q 578 158 594 269 q 446 154 518 158 q 299 142 386 150 q 338 213 308 158 q 379 292 367 268 q 418 363 392 315 q 462 441 444 411 q 503 510 479 471 q 550 581 528 549 q 608 654 588 636 q 617 661 614 660 m 619 663 m 658 514 q 660 525 658 518 q 662 560 661 547 q 663 598 663 574 q 661 638 664 622 q 654 669 658 653 q 640 693 650 686 q 617 699 631 700 q 601 694 608 699 q 588 688 593 690 q 576 677 583 685 q 566 666 568 669 q 557 653 564 663 q 549 643 550 644 q 392 388 492 569 q 260 138 333 281 q 56 108 56 115 q 133 101 57 101 q 243 104 208 101 q 18 -354 161 -60 q 1 -394 -1 -393 q 26 -358 4 -396 q 135 -167 61 -304 q 219 -7 186 -71 q 279 106 253 57 q 366 111 308 107 q 449 117 424 115 q 572 124 521 122 q 556 13 567 82 q 540 -94 546 -56 q 526 -190 533 -133 q 515 -296 519 -246 q 512 -319 514 -303 q 509 -344 510 -336 q 509 -365 508 -353 q 514 -389 510 -378 q 518 -394 515 -394 q 542 -231 522 -342 q 558 -142 546 -207 q 581 -14 569 -78 q 604 125 592 50 q 785 124 683 126 q 838 125 838 121 q 788 142 839 132 q 610 158 713 157 q 658 514 649 388 z "},"B":{"ha":789,"x_min":-15,"x_max":783,"o":"m 760 -83 q 783 -85 764 -83 q 774 -86 782 -86 q 549 -129 683 -96 q 264 -353 417 -264 q 202 -385 233 -371 q 127 -413 171 -400 q 49 -416 83 -426 q -1 -369 14 -406 q 53 -276 -15 -322 q 344 -160 139 -217 q 508 -119 435 -135 q 635 26 585 -46 q 683 117 674 81 q 686 138 686 129 q 421 122 686 218 q 238 46 340 93 q 216 47 228 40 q 208 65 204 54 q 224 89 210 75 q 264 133 242 110 q 314 183 286 156 q 356 224 342 210 q 578 467 508 378 q 632 547 615 515 q 635 553 632 549 q 639 560 638 557 q 642 569 640 564 q 646 578 644 574 q 647 586 647 582 q 645 594 647 590 q 640 600 643 597 q 524 568 594 619 q 432 485 475 532 q 331 358 389 438 q 257 258 272 279 q 251 251 256 257 q 244 241 247 246 q 235 231 240 236 q 226 222 231 225 q 215 215 221 218 q 204 215 210 213 q 194 222 199 217 q 192 286 185 236 q 254 563 201 363 q 292 697 289 697 q 279 615 294 696 q 244 442 264 535 q 222 339 224 349 q 213 246 210 271 q 213 243 213 244 q 238 274 218 249 q 297 355 256 299 q 369 453 338 411 q 435 531 401 494 q 579 632 515 614 q 654 628 622 644 q 676 569 686 613 q 638 492 668 538 q 475 296 588 417 q 297 113 458 278 q 379 146 339 131 q 472 178 419 161 q 566 202 524 196 q 646 208 608 208 q 704 190 683 208 q 724 138 725 172 q 707 75 722 110 q 604 -71 678 13 q 571 -107 588 -89 q 722 -85 650 -92 q 760 -83 744 -83 m 479 -147 q 110 -275 232 -210 q 38 -375 -6 -336 q 168 -365 71 -407 q 421 -199 279 -318 q 479 -147 453 -172 z "},"C":{"ha":667,"x_min":54,"x_max":685,"o":"m 678 82 q 654 22 685 79 q 606 -61 624 -35 q 340 -321 486 -243 q 168 -365 254 -368 q 58 -150 61 -319 q 117 178 56 -12 q 257 490 174 351 q 363 626 313 582 q 481 633 438 693 q 510 464 514 586 q 508 425 510 442 q 504 401 506 408 q 502 394 503 394 q 499 420 501 394 q 495 478 497 446 q 492 524 493 511 q 490 538 490 533 q 488 554 489 543 q 485 571 486 565 q 481 587 483 576 q 475 602 478 597 q 468 615 472 607 q 460 626 464 624 q 450 633 456 628 q 438 635 444 638 q 424 632 432 633 q 360 579 396 622 q 238 378 300 508 q 101 -58 128 146 q 171 -331 72 -283 q 321 -292 240 -333 q 588 -49 457 -222 q 604 -26 593 -42 q 627 8 615 -10 q 651 44 639 26 q 670 72 663 61 q 678 82 678 83 z "},"D":{"ha":840,"x_min":65,"x_max":842,"o":"m 840 142 q 804 124 842 140 q 704 79 767 107 q 626 44 642 51 q 606 -7 617 19 q 400 -328 513 -215 q 282 -410 340 -389 q 175 -411 229 -428 q 94 -354 121 -394 q 104 -250 65 -307 q 185 -169 135 -206 q 306 -90 235 -132 q 586 49 431 -18 q 681 393 660 228 q 687 452 685 422 q 687 526 689 482 q 676 603 685 571 q 644 659 667 636 q 585 681 621 682 q 499 650 549 679 q 308 468 410 597 q 232 361 264 413 q 221 250 228 299 q 219 233 221 247 q 216 214 217 219 q 213 195 215 208 q 209 175 211 182 q 203 157 207 168 q 196 140 200 146 q 187 126 192 133 q 175 114 182 118 q 161 107 168 110 q 121 120 135 100 q 110 168 107 140 q 165 313 117 222 q 214 399 188 357 q 218 484 215 426 q 224 585 221 542 q 232 668 226 629 q 234 683 233 676 q 236 691 235 689 q 238 693 238 693 q 238 632 239 693 l 236 546 q 235 429 236 472 q 375 600 299 524 q 528 707 458 681 q 591 715 556 718 q 650 697 626 713 q 700 635 682 675 q 722 548 718 596 q 725 461 726 500 q 718 382 724 422 q 638 69 699 229 q 736 108 686 90 q 840 142 839 146 m 208 324 q 167 243 185 283 q 138 147 136 178 q 146 133 139 135 q 160 140 153 132 q 181 182 171 151 q 208 324 199 240 m 574 19 q 206 -194 326 -97 q 132 -271 154 -236 q 132 -353 99 -321 q 192 -383 156 -376 q 265 -378 229 -390 q 374 -301 317 -358 q 569 13 481 -192 q 574 19 572 15 z "},"E":{"ha":761,"x_min":76,"x_max":883,"o":"m 258 325 q 390 271 267 268 q 472 272 428 269 q 489 249 482 261 q 478 200 492 228 q 406 89 460 160 q 299 -40 389 68 q 167 -210 208 -149 q 149 -356 78 -346 q 218 -349 172 -360 q 269 -335 242 -343 q 313 -320 296 -326 q 363 -300 331 -314 q 405 -282 396 -286 q 451 -260 414 -278 q 492 -242 489 -243 q 592 -194 518 -229 q 715 -136 665 -158 q 818 -97 765 -114 q 883 -85 881 -76 q 870 -91 883 -86 q 842 -101 857 -96 q 824 -107 826 -106 q 604 -215 747 -140 q 389 -322 461 -290 q 367 -333 386 -324 q 342 -343 347 -342 q 320 -352 338 -344 q 294 -362 303 -360 q 270 -371 286 -365 q 243 -379 254 -376 q 217 -385 232 -382 q 188 -389 201 -387 q 112 -375 143 -394 q 82 -312 81 -356 q 108 -232 85 -278 q 246 -40 144 -165 q 303 26 258 -26 q 374 115 347 79 q 425 186 401 150 q 451 244 449 225 q 383 237 418 238 q 312 243 347 236 q 251 271 276 250 q 222 326 226 292 q 253 428 217 372 q 403 583 304 508 q 593 676 504 660 q 681 666 643 685 q 713 600 718 647 q 682 519 710 565 q 624 446 661 488 q 560 381 586 404 q 526 355 528 353 q 553 388 525 357 q 682 574 658 507 q 661 650 703 636 q 603 649 639 657 q 425 557 521 632 q 283 407 331 483 q 258 325 253 356 z "},"F":{"ha":849,"x_min":10,"x_max":874,"o":"m 553 664 q 547 644 550 656 q 326 586 493 631 q 367 603 336 590 q 415 621 399 615 q 457 636 431 626 q 506 652 483 646 q 553 664 529 658 m 558 688 q 558 687 558 688 q 557 686 557 686 q 558 688 558 688 m 590 656 q 595 683 596 676 q 591 693 594 689 q 583 699 588 697 q 572 703 578 701 q 560 703 567 704 q 547 702 553 703 q 533 699 542 701 q 522 697 525 697 q 510 694 518 696 q 503 690 503 692 q 146 551 340 642 q 124 540 128 543 q 124 524 125 535 q 146 509 135 511 q 176 511 157 507 q 292 539 233 522 q 430 581 351 556 q 539 614 508 606 q 456 355 517 539 q 389 154 394 171 q 121 122 319 147 q 35 110 60 114 q 11 103 11 106 q 128 96 14 92 q 376 115 214 99 q 278 -239 308 -101 q 260 -371 250 -368 q 268 -348 261 -372 q 284 -288 275 -324 q 296 -246 293 -253 q 413 119 336 -101 q 667 143 576 136 q 778 154 778 151 q 765 160 778 157 q 724 165 751 163 q 661 169 696 168 q 426 158 563 172 q 475 296 435 185 q 540 481 515 407 q 583 628 564 556 q 638 643 599 632 q 695 660 676 654 q 745 674 714 665 q 803 687 776 682 q 860 696 831 692 q 858 699 872 697 q 800 697 840 703 q 590 656 728 689 z "},"G":{"ha":740,"x_min":44,"x_max":943,"o":"m 943 -157 q 940 -158 943 -158 q 928 -158 936 -158 q 910 -158 919 -158 q 885 -158 901 -158 q 853 -158 868 -158 q 592 -171 714 -157 q 399 -201 489 -182 q 376 -233 388 -218 q 333 -289 350 -268 q 289 -337 317 -310 q 233 -381 261 -364 q 128 -390 175 -417 q 94 -355 106 -376 q 93 -312 82 -333 q 204 -232 113 -271 q 367 -182 275 -203 q 544 108 438 -82 q 358 -19 457 32 q 201 -71 269 -65 q 90 -33 131 -76 q 47 89 50 11 q 68 257 46 149 q 263 632 115 475 q 481 763 379 756 q 606 650 582 769 q 610 531 615 600 q 555 374 603 453 q 454 240 507 296 q 410 201 413 197 q 446 247 410 201 q 588 536 579 410 q 500 721 597 715 q 300 603 415 725 q 115 292 167 464 q 103 243 108 267 q 97 209 99 221 q 90 167 94 197 q 85 119 85 138 q 85 73 85 100 q 94 29 86 46 q 113 -4 101 13 q 144 -28 124 -21 q 192 -33 165 -36 q 336 14 251 -29 q 629 251 499 100 q 640 245 632 250 q 650 238 647 240 q 661 226 656 231 q 651 213 658 222 q 642 200 644 204 q 590 110 632 183 q 531 7 549 38 q 481 -76 514 -24 q 421 -171 449 -129 q 586 -150 499 -157 q 851 -147 721 -139 q 943 -157 943 -153 m 342 -217 q 219 -260 274 -235 q 132 -314 157 -287 q 119 -340 118 -331 q 134 -360 121 -351 q 160 -369 147 -368 q 213 -353 182 -371 q 342 -217 268 -318 z "},"H":{"ha":888,"x_min":64,"x_max":1035,"o":"m 986 -315 q 989 -321 1035 -293 q 939 -344 967 -335 q 869 -360 911 -354 q 794 -353 828 -367 q 702 -285 742 -333 q 640 -172 663 -237 q 607 -37 618 -106 q 593 104 596 31 q 597 286 589 196 q 533 222 578 267 q 464 153 489 178 q 402 90 439 128 q 336 21 365 53 q 268 -193 303 -100 q 197 -329 231 -292 q 121 -344 160 -371 q 92 -305 99 -331 q 89 -258 85 -279 q 103 -217 93 -237 q 197 -76 128 -161 q 304 46 246 -18 q 375 317 325 119 q 457 619 425 515 q 494 718 479 689 q 497 722 494 718 q 500 728 499 725 q 494 725 497 726 q 490 722 492 724 q 486 719 488 719 q 340 608 439 692 q 75 374 199 490 q 74 375 65 363 q 99 407 81 386 q 325 625 181 499 q 352 649 329 628 q 385 678 375 669 q 414 701 394 686 q 449 728 433 717 q 482 747 465 739 q 513 753 493 756 q 528 728 532 751 q 524 714 526 721 q 517 699 521 707 q 510 686 513 692 q 443 454 488 632 q 404 290 433 413 q 358 103 375 168 q 490 235 404 150 q 604 349 576 321 q 685 631 626 518 q 714 681 700 660 q 753 722 728 701 q 810 749 779 743 q 883 738 850 757 q 911 681 915 719 q 897 635 908 660 q 879 603 885 611 q 853 567 874 594 q 632 321 789 479 q 628 -10 608 154 q 640 -87 633 -51 q 660 -162 647 -124 q 688 -231 672 -201 q 726 -287 704 -260 q 774 -328 747 -314 q 836 -348 801 -342 q 911 -342 871 -354 q 986 -315 944 -335 m 643 389 q 765 521 713 461 q 860 649 835 600 q 864 656 860 649 q 870 667 868 663 q 875 680 872 672 q 878 692 878 688 q 874 703 878 697 q 864 711 871 708 q 756 672 810 733 q 643 389 682 589 m 278 -43 q 263 -61 276 -46 q 247 -80 250 -76 q 232 -97 244 -83 q 215 -117 219 -111 q 201 -135 211 -122 q 185 -154 190 -147 q 172 -174 181 -161 q 159 -195 164 -186 q 148 -215 154 -204 q 136 -237 142 -226 q 133 -243 136 -237 q 130 -251 131 -249 q 126 -260 129 -254 q 123 -270 124 -267 q 121 -280 122 -274 q 121 -290 119 -286 q 124 -299 122 -294 q 128 -308 125 -304 q 136 -315 132 -312 q 181 -286 153 -326 q 194 -264 188 -275 q 208 -237 201 -253 q 220 -213 215 -222 q 232 -185 225 -204 q 242 -158 239 -165 q 252 -128 244 -151 q 260 -101 260 -106 q 269 -71 261 -97 q 278 -43 278 -44 z "},"I":{"ha":417,"x_min":56,"x_max":406,"o":"m 406 -46 q 397 -48 406 -47 q 369 -52 389 -49 q 328 -62 349 -56 q 196 -147 251 -86 q 163 -261 179 -206 q 156 -285 160 -268 q 149 -310 151 -301 q 140 -332 146 -319 q 129 -353 135 -344 q 120 -360 128 -358 q 106 -357 113 -361 q 107 -224 57 -322 q 156 -151 125 -186 q 231 169 185 -43 q 294 514 279 390 q 301 619 304 586 q 299 635 300 632 q 235 578 268 622 q 173 469 201 535 q 131 344 144 404 q 115 247 118 296 q 113 233 114 233 q 107 261 107 233 q 109 315 107 289 q 113 350 111 342 q 162 514 126 432 q 246 640 197 596 q 265 654 256 647 q 288 667 274 661 q 314 665 303 672 q 331 636 325 657 q 335 568 336 613 q 306 343 332 488 q 207 -103 264 114 q 250 -75 229 -86 q 322 -47 285 -56 q 367 -42 346 -43 q 396 -43 388 -42 l 406 -46 m 101 -332 q 101 -332 101 -332 m 119 -332 q 121 -332 119 -332 q 119 -332 119 -332 m 114 -296 q 129 -250 121 -274 q 114 -296 117 -276 z "},"J":{"ha":808,"x_min":65,"x_max":886,"o":"m 885 63 q 881 63 883 63 q 876 63 879 63 q 869 63 874 63 q 860 63 864 63 q 849 65 856 64 q 836 65 842 65 q 503 40 663 79 q 374 -310 447 -187 q 344 -356 357 -339 q 307 -393 332 -374 q 254 -419 282 -412 q 117 -364 186 -437 q 72 -272 78 -322 q 122 -132 65 -203 q 468 61 233 6 q 515 288 494 165 q 547 558 542 444 q 543 660 550 631 q 540 669 542 668 q 442 653 510 683 q 253 517 347 610 q 233 500 235 499 q 246 522 231 501 q 327 606 278 564 q 429 674 376 647 q 550 692 506 711 q 576 617 572 681 q 572 471 579 560 q 510 71 557 276 q 835 75 678 103 q 885 63 885 67 m 460 29 q 238 -75 331 -8 q 111 -236 128 -154 q 123 -315 101 -279 q 181 -372 144 -350 q 300 -343 240 -410 q 413 -126 360 -278 q 460 29 439 -54 z "},"K":{"ha":990,"x_min":74,"x_max":1172,"o":"m 108 -331 q 108 -331 108 -331 m 146 -257 q 119 -310 132 -286 q 146 -257 118 -290 m 592 690 l 590 690 l 592 690 m 574 706 q 574 704 574 706 q 574 706 574 706 m 588 718 q 554 704 578 718 q 326 547 456 647 q 265 501 296 524 q 215 465 235 479 q 180 440 196 451 q 157 424 164 429 q 151 418 150 419 q 174 427 153 417 q 241 466 194 438 q 340 531 288 494 q 571 679 479 629 q 546 596 563 642 q 520 529 529 550 q 485 451 511 508 q 415 306 456 388 q 331 142 374 225 q 258 -6 289 58 q 224 -84 246 -33 q 194 -153 203 -135 q 169 -176 186 -160 q 142 -202 151 -193 q 119 -226 132 -211 q 97 -256 107 -242 q 86 -324 75 -292 q 103 -352 92 -337 q 128 -364 115 -367 q 138 -358 133 -362 q 146 -349 143 -353 q 152 -337 149 -346 q 156 -328 156 -329 q 228 -176 182 -278 q 257 -143 247 -157 q 351 -19 275 -119 q 476 144 426 82 q 813 -303 617 -156 q 970 -385 883 -357 q 1140 -393 1057 -412 q 1169 -381 1171 -386 q 1136 -379 1168 -379 q 932 -339 1024 -382 q 869 -304 900 -324 q 808 -258 839 -285 q 756 -211 778 -232 q 703 -153 733 -190 q 658 -97 674 -115 q 611 -32 642 -78 q 569 29 581 14 q 526 95 558 44 q 486 157 494 146 q 608 300 551 238 q 988 611 790 501 q 1010 624 999 618 q 1028 634 1021 631 q 1040 641 1035 638 q 1049 646 1046 644 q 1050 647 1051 647 q 981 622 1047 653 q 585 322 783 531 q 477 201 532 267 q 392 95 422 135 q 286 -40 361 56 q 415 225 315 25 q 560 542 515 425 q 599 669 590 622 q 597 713 604 701 q 588 718 590 718 z "},"L":{"ha":769,"x_min":83,"x_max":1171,"o":"m 1169 -335 q 1152 -335 1169 -336 q 1111 -331 1135 -333 q 1083 -328 1088 -328 q 299 -325 592 -285 q 264 -331 278 -328 q 260 -336 261 -333 q 179 -436 214 -410 q 126 -444 156 -456 q 92 -397 97 -433 q 158 -318 85 -347 q 238 -297 193 -306 q 271 -236 249 -276 q 531 383 424 43 q 539 410 532 389 q 547 437 546 431 q 554 461 549 443 q 562 488 560 479 q 568 514 564 497 q 574 542 572 531 q 579 568 576 553 q 583 597 582 583 q 585 625 583 611 q 569 689 586 674 q 572 692 560 699 q 594 554 608 672 q 524 267 581 443 q 444 44 489 158 q 289 -289 363 -158 q 557 -276 385 -275 q 1083 -314 857 -278 q 1169 -335 1171 -328 m 136 -414 m 136 -414 q 168 -390 144 -415 q 208 -342 189 -369 q 143 -371 165 -353 q 135 -412 119 -392 q 136 -414 136 -414 z "},"M":{"ha":1081,"x_min":51,"x_max":1063,"o":"m 1040 -407 q 1056 -404 1053 -404 q 1046 -410 1063 -404 q 1043 -411 1044 -410 q 984 -423 1017 -421 q 919 -412 951 -425 q 865 -182 843 -369 q 922 102 876 -79 q 979 367 967 283 q 988 482 992 439 q 981 514 986 507 q 967 506 974 510 q 953 497 960 503 q 942 488 946 492 q 931 476 939 485 q 922 466 924 468 q 912 453 921 464 q 903 442 903 442 q 723 178 836 357 q 550 -79 610 0 q 540 -92 549 -81 q 528 -108 531 -104 q 517 -121 525 -111 q 505 -135 510 -131 q 492 -147 500 -140 q 478 -159 485 -154 q 463 -169 471 -164 q 426 -174 446 -181 q 401 -143 406 -167 q 407 -85 399 -122 q 467 92 421 -29 q 506 190 478 119 q 553 311 535 260 q 588 413 572 363 q 599 468 597 450 q 599 469 599 468 q 546 424 576 461 q 319 130 464 325 q 104 -151 174 -65 q 79 -179 85 -176 q 63 -175 75 -178 q 53 -161 56 -164 q 64 -125 53 -154 q 188 172 88 -65 q 335 544 288 408 q 361 646 358 615 q 362 660 363 653 q 356 672 361 668 q 342 675 351 676 q 271 635 318 669 q 229 601 267 632 q 159 546 192 571 q 125 522 126 521 q 180 577 122 526 q 261 647 238 628 q 335 692 307 685 q 364 690 353 696 q 376 665 375 683 q 377 632 378 647 q 371 592 376 617 q 363 558 365 567 q 356 535 360 550 q 232 199 319 419 q 178 67 215 158 q 121 -72 140 -24 q 300 167 176 0 q 493 422 424 335 q 571 499 539 481 q 608 506 586 511 q 635 478 631 501 q 624 396 639 451 q 540 165 600 313 q 458 -50 479 17 q 438 -133 439 -108 q 438 -137 438 -135 q 451 -128 442 -136 q 518 -54 478 -108 q 684 186 581 26 q 835 411 788 346 q 929 522 893 492 q 953 538 940 532 q 983 542 965 544 q 1010 521 1000 540 q 1018 422 1024 492 q 976 207 1011 347 q 945 88 969 179 q 907 -65 921 -4 q 885 -187 893 -125 q 879 -311 874 -262 q 990 -415 892 -421 q 1040 -407 1011 -414 z "},"N":{"ha":886,"x_min":63,"x_max":1075,"o":"m 128 -258 q 222 -99 157 -219 q 324 92 260 -32 q 442 317 388 217 q 550 503 496 418 q 683 658 633 638 q 744 636 721 674 q 757 540 757 604 q 751 451 756 497 q 739 338 747 406 q 728 251 731 271 q 720 173 722 199 q 715 101 718 147 q 712 17 711 56 q 717 -61 713 -22 q 865 -262 738 -251 q 970 -251 921 -268 q 1049 -208 1019 -235 q 1053 -212 1075 -185 q 978 -262 1029 -242 q 863 -279 926 -283 q 760 -235 800 -275 q 686 94 678 -151 q 701 306 688 171 q 719 486 715 442 q 717 614 725 576 q 715 623 715 621 q 711 627 714 625 q 703 626 708 629 q 661 592 688 621 q 538 406 614 539 q 380 110 485 313 q 217 -192 275 -92 q 205 -211 215 -193 q 192 -233 194 -229 q 180 -251 189 -237 q 166 -272 171 -265 q 153 -290 161 -279 q 136 -307 144 -300 q 108 -322 121 -322 q 107 -204 63 -322 q 199 28 115 -181 q 314 353 282 238 q 275 604 388 614 q 126 543 226 600 q 106 536 86 521 q 122 549 111 540 q 271 621 207 613 q 314 619 296 625 q 342 596 332 613 q 358 560 351 579 q 363 514 364 542 q 361 463 363 486 q 353 407 360 439 q 342 355 346 375 q 329 306 338 335 q 319 269 321 278 q 311 243 317 260 q 220 -6 285 158 q 131 -250 156 -169 q 128 -258 129 -251 z "},"O":{"ha":867,"x_min":36,"x_max":1007,"o":"m 946 338 q 1001 340 1006 343 q 949 328 999 338 q 739 308 857 311 q 738 304 738 307 q 524 -124 675 83 q 382 -281 453 -219 q 342 -312 358 -300 q 299 -337 326 -324 q 243 -354 272 -350 q 131 -314 186 -362 q 64 -175 71 -262 q 71 -58 58 -124 q 161 197 92 49 q 247 363 196 271 q 190 381 217 371 q 69 465 97 418 q 101 575 38 522 q 258 656 151 617 q 388 694 315 675 q 503 713 447 710 q 613 703 560 715 q 706 653 667 692 q 757 551 744 614 q 744 328 778 454 q 946 338 853 328 m 703 329 q 722 421 715 375 q 717 560 732 494 q 650 656 701 626 q 401 660 568 703 q 183 585 263 624 q 96 515 113 550 q 142 436 76 475 q 260 386 189 407 q 292 440 275 413 q 351 538 351 546 q 303 433 351 529 q 289 405 299 424 q 278 382 279 386 q 356 363 311 372 q 703 329 506 332 m 265 357 q 132 54 172 172 q 93 -125 97 -50 q 121 -260 89 -210 q 188 -315 144 -296 q 292 -300 228 -335 q 425 -185 353 -265 q 664 213 574 -17 q 697 308 685 264 q 265 357 449 307 z "},"P":{"ha":1374,"x_min":-18,"x_max":1360,"o":"m 697 572 q 697 572 697 572 m 1269 593 q 801 690 1089 715 q 319 556 554 669 q 143 449 218 506 q 21 318 68 393 q 0 278 8 297 q -11 239 -8 260 q 10 173 -17 199 q 74 140 36 147 q 154 135 111 132 q 257 153 190 138 q 361 169 324 168 q 381 171 381 171 q 349 176 381 175 q 303 175 317 176 q 249 167 283 174 q 191 158 215 161 q 133 154 167 154 q 72 163 100 154 q 14 231 7 181 q 71 335 21 274 q 339 525 156 439 q 810 654 571 633 q 1253 564 1086 676 q 1317 457 1321 518 q 1288 379 1314 421 q 1185 264 1254 325 q 843 50 1054 153 q 553 -64 689 -25 q 638 225 578 39 q 717 482 697 411 q 733 567 733 543 q 732 575 732 569 q 717 594 729 590 q 695 593 706 597 q 678 583 685 589 q 613 506 654 563 q 515 362 576 456 q 460 263 454 268 q 514 325 463 261 q 623 463 565 389 q 696 550 681 536 q 676 474 688 513 q 647 384 665 436 q 622 311 629 332 q 518 -74 547 78 q 385 -94 438 -94 q 385 -99 358 -94 q 514 -92 431 -107 q 493 -301 492 -212 q 498 -360 494 -326 q 507 -394 501 -394 q 509 -377 508 -394 q 510 -336 510 -360 q 511 -306 511 -312 q 549 -85 519 -210 q 858 25 690 -51 q 1272 296 1139 153 q 1353 449 1347 378 q 1269 593 1360 533 z "},"Q":{"ha":886,"x_min":-14,"x_max":963,"o":"m 853 -333 q 831 -351 832 -353 q 849 -329 831 -350 q 870 -303 864 -310 q 893 -273 876 -296 q 917 -233 910 -250 q 931 -193 924 -217 q 938 -147 939 -169 q 926 -103 936 -125 q 800 6 899 -44 q 656 63 739 36 q 418 -235 543 -122 q 215 -362 319 -322 q 76 -364 128 -397 q 39 -53 -12 -304 q 110 182 69 94 q 132 228 121 206 q 31 300 67 258 q 4 413 -6 342 q 94 564 14 492 q 349 704 189 651 q 479 737 410 725 q 622 750 549 749 q 758 729 696 751 q 853 661 821 707 q 843 439 903 589 q 715 169 797 321 q 668 85 692 125 q 811 25 750 57 q 906 -40 868 -6 q 951 -126 943 -74 q 908 -269 963 -192 q 853 -333 885 -303 m 635 96 q 785 396 706 218 q 832 521 821 476 q 822 640 850 600 q 736 699 794 681 q 608 715 678 718 q 476 699 539 711 q 360 669 414 688 q 78 496 163 604 q 52 453 63 476 q 37 399 42 431 q 47 340 32 367 q 146 257 69 296 q 249 433 197 361 q 253 441 249 433 q 261 451 258 449 q 268 458 264 454 q 276 464 272 463 q 275 461 279 465 q 254 429 269 454 q 161 250 207 349 q 167 247 164 249 q 308 192 231 218 q 484 140 386 167 q 635 96 582 114 m 147 221 q 126 174 138 197 q 63 -58 90 88 q 56 -100 58 -82 q 49 -147 53 -118 q 46 -199 46 -176 q 48 -247 46 -221 q 58 -292 50 -274 q 77 -326 65 -311 q 109 -347 89 -340 q 156 -349 129 -353 q 204 -333 178 -344 q 396 -210 303 -294 q 621 74 515 -101 q 472 115 571 89 q 294 165 372 142 q 154 218 217 189 q 147 221 150 219 z "},"R":{"ha":963,"x_min":-22,"x_max":1090,"o":"m 192 171 q 274 129 217 165 q 192 171 206 124 m 190 174 q 190 174 190 174 m 503 706 q 540 718 528 714 q 579 730 553 722 q 624 741 606 738 q 669 748 643 744 q 719 751 694 751 q 769 746 744 750 q 850 710 819 739 q 876 631 881 681 q 840 532 874 588 q 701 367 794 453 q 400 164 556 232 q 492 564 469 435 q 503 706 507 661 m 721 785 q 492 739 624 785 q 472 752 489 749 q 447 751 456 756 q 390 699 425 742 q 81 504 203 614 q -11 389 11 442 q -19 338 -22 368 q 7 290 -15 308 q 113 253 42 261 q 142 250 129 250 q 161 250 156 250 q 167 251 167 250 q 147 256 167 251 q 102 265 126 260 q 71 272 78 269 q -1 356 -12 299 q 42 429 6 388 q 351 643 138 540 q 306 571 329 611 q 270 503 283 531 q 258 475 257 476 q 272 488 260 474 q 301 527 283 503 q 338 578 319 551 q 376 630 357 604 q 407 668 396 656 q 469 694 438 682 q 456 575 469 654 q 433 465 446 525 q 410 362 419 404 q 383 250 400 319 q 357 147 365 181 q 317 136 336 140 q 199 201 239 190 q 163 197 175 208 q 158 163 150 186 q 217 103 174 118 q 318 99 261 88 q 342 81 329 90 q 285 -194 300 -97 q 281 -223 283 -204 q 276 -268 279 -242 q 274 -314 274 -294 q 279 -333 275 -333 q 290 -279 279 -333 q 372 57 306 -200 q 494 -50 443 1 q 928 -312 721 -279 q 1051 -314 992 -322 q 1072 -310 1063 -312 q 1086 -306 1082 -308 q 1089 -304 1090 -304 q 1049 -306 1089 -304 q 640 -150 846 -314 q 513 -33 599 -115 q 381 88 426 50 q 389 118 388 115 q 600 235 489 156 q 835 451 747 336 q 914 621 907 546 q 865 742 921 699 q 721 785 808 785 z "},"S":{"ha":932,"x_min":-18,"x_max":953,"o":"m 843 -219 q 853 -223 853 -222 q 842 -224 853 -224 q 742 -331 815 -283 q 456 -408 619 -408 q 342 -365 346 -410 q 365 -325 339 -344 q 578 -240 418 -285 q 781 -214 688 -210 q 806 -215 794 -214 q 822 -128 826 -174 q 800 -72 818 -96 q 749 -34 782 -49 q 690 -12 715 -19 q 626 3 665 -6 q 458 24 563 15 q 404 -7 407 -11 q 443 25 404 -6 q 182 56 247 43 q 126 69 149 63 q 75 88 103 75 q 28 120 47 100 q 4 167 10 140 q 35 353 -18 253 q 179 533 82 444 q 469 718 307 650 q 704 776 594 771 q 908 729 826 783 q 951 653 949 703 q 929 556 953 611 q 774 325 886 458 q 500 56 635 161 q 681 26 607 44 q 804 -35 756 7 q 856 -131 851 -74 q 843 -219 860 -179 m 482 58 q 753 343 624 183 q 900 571 863 478 q 903 575 901 572 q 894 704 943 672 q 756 742 838 740 q 611 728 674 744 q 488 685 549 711 q 207 504 332 618 q 46 275 79 386 q 40 169 28 217 q 126 106 50 129 q 210 86 163 94 q 294 74 258 78 q 389 66 331 71 q 476 58 447 61 q 482 58 479 58 m 801 -222 q 782 -222 792 -222 q 586 -258 690 -225 q 422 -321 479 -292 q 414 -325 421 -322 q 404 -330 407 -328 q 395 -335 401 -332 q 385 -342 389 -339 q 378 -348 382 -344 q 371 -355 374 -351 q 367 -362 368 -358 q 375 -372 365 -368 q 400 -378 385 -376 q 428 -381 415 -381 q 450 -382 442 -382 q 631 -350 550 -381 q 765 -269 713 -319 q 801 -222 788 -247 z "},"T":{"ha":540,"x_min":-85,"x_max":847,"o":"m 160 -518 q 156 -456 153 -517 q 163 -340 158 -396 q 171 -261 168 -285 q 375 496 218 103 q 421 601 399 553 q 197 597 344 599 q -15 593 50 596 q -36 592 -19 593 q -67 589 -53 590 q -82 589 -81 588 q -37 601 -83 593 q 36 610 10 608 q 238 622 103 615 q 436 632 372 628 q 493 693 449 653 q 668 803 585 774 q 792 799 743 829 q 833 748 819 781 q 829 688 847 715 q 785 656 815 669 q 729 636 754 642 q 663 624 704 631 q 467 604 578 610 q 261 44 336 339 q 197 -232 218 -119 q 164 -487 176 -344 q 162 -511 163 -504 q 160 -518 161 -518 m 493 636 q 651 657 583 644 q 710 668 692 664 q 758 684 729 672 q 799 713 788 696 q 795 750 811 729 q 760 776 779 771 q 686 768 731 783 q 515 657 606 739 q 493 636 501 646 z "},"U":{"ha":804,"x_min":-65,"x_max":793,"o":"m 711 -462 q 685 -463 710 -467 q 650 -457 660 -460 q 590 -411 614 -444 q 557 -337 565 -378 q 544 -250 549 -296 q 546 -167 540 -204 q 619 197 557 -19 q 726 526 644 288 q 719 514 724 522 q 713 501 714 506 q 594 251 665 418 q 503 36 524 83 q 404 -146 453 -68 q 304 -262 351 -231 q 215 -272 257 -294 q 136 10 129 -222 q 140 70 136 42 q 152 136 143 99 q 164 187 161 174 q 181 249 167 200 q 196 300 196 297 q 254 544 243 465 q 258 560 256 547 q 260 581 260 574 q 262 601 261 588 q 261 622 263 614 q 257 641 260 631 q 249 660 254 651 q 165 656 231 689 q 142 643 154 650 q 121 631 129 636 q 99 615 113 625 q 78 600 85 604 q 57 583 72 596 q 39 567 42 569 q 19 551 36 565 q 1 536 1 536 q -51 481 -40 500 q -54 469 -56 474 q -37 462 -54 463 q -19 460 -19 461 q -28 458 -19 458 q -45 458 -36 457 q -57 461 -54 458 q -64 474 -62 468 q -58 492 -65 481 q -45 511 -51 503 q -28 531 -39 519 q -9 549 -17 542 q 8 563 -1 556 q 18 572 17 571 q 153 676 97 644 q 189 691 171 686 q 227 695 207 696 q 262 679 247 694 q 282 635 276 664 q 286 610 285 622 q 287 585 288 599 q 286 563 286 571 q 283 540 286 556 q 281 520 281 524 q 277 497 281 517 q 272 478 274 478 q 227 292 260 411 q 183 124 194 174 q 174 -82 164 31 q 218 -232 183 -193 q 307 -208 250 -265 q 371 -122 336 -178 q 462 46 418 -47 q 555 256 506 139 q 633 433 604 372 q 722 592 678 528 q 728 599 724 593 q 735 610 732 606 q 743 619 738 614 q 753 626 749 624 q 764 628 757 629 q 778 624 771 628 q 783 581 792 611 q 739 453 769 536 q 704 356 708 369 q 646 182 667 249 q 601 15 625 115 q 568 -172 578 -85 q 679 -457 542 -426 q 697 -460 688 -460 q 708 -462 706 -461 q 711 -462 711 -462 m 772 593 q 775 594 774 593 q 772 593 774 593 m 751 608 l 751 610 l 751 608 z "},"V":{"ha":719,"x_min":-57,"x_max":794,"o":"m 786 782 q 793 799 792 800 q 793 779 794 797 q 751 618 789 729 q 533 117 676 401 q 319 -260 417 -115 q 204 -396 251 -358 q 174 -414 190 -407 q 137 -417 157 -421 q 106 -389 117 -412 q 93 -276 90 -356 q 117 -8 94 -207 q 124 49 119 6 q 131 110 129 93 q 137 164 133 126 q 142 224 140 201 q 145 279 143 246 q 148 342 147 313 q 149 403 149 371 q 145 470 147 440 q 135 539 143 500 q 115 604 128 578 q 76 650 101 631 q 18 671 51 669 q -10 670 8 672 q -42 666 -28 668 q -56 664 -56 664 q -44 672 -57 667 q -13 680 -31 676 q 15 683 4 683 q 77 671 50 685 q 121 628 104 657 q 150 569 138 600 q 167 494 163 539 q 176 415 172 449 q 178 334 179 382 q 175 263 176 286 q 171 203 174 240 q 171 194 171 197 q 153 -10 167 125 q 133 -207 139 -146 q 132 -343 126 -299 q 143 -382 135 -378 l 142 -382 q 178 -365 153 -386 q 286 -235 221 -331 q 607 346 428 -29 q 761 701 710 563 q 786 782 778 749 z "},"W":{"ha":1304,"x_min":79,"x_max":1253,"o":"m 831 724 q 883 725 835 729 q 957 715 932 721 q 1165 588 1083 688 q 1250 338 1246 489 q 1214 118 1253 229 q 1149 -31 1190 51 q 965 -293 1063 -197 q 799 -389 882 -374 q 669 -365 724 -401 q 596 -253 614 -328 q 590 -65 579 -182 q 604 26 593 -40 q 618 132 615 93 q 617 153 618 135 q 564 136 592 150 q 451 22 511 108 q 373 -108 422 -21 q 300 -232 324 -194 q 188 -353 240 -322 q 139 -368 169 -368 q 93 -340 108 -368 q 88 -326 90 -333 q 83 -312 85 -319 q 81 -298 82 -304 q 81 -283 81 -292 q 81 -270 81 -275 q 81 -256 81 -265 q 83 -242 82 -246 q 84 -229 83 -239 q 86 -218 85 -219 q 121 -33 93 -150 q 183 201 133 15 q 253 494 232 386 q 253 501 253 496 q 228 683 290 686 q 208 679 221 683 q 187 671 196 675 q 178 667 178 667 q 181 673 176 669 q 194 680 186 676 q 211 687 201 683 q 230 691 221 690 q 246 690 239 692 q 281 571 286 675 q 229 285 275 479 q 198 153 219 240 q 160 -6 176 67 q 131 -143 143 -78 q 132 -335 96 -332 q 167 -324 143 -336 q 268 -210 213 -296 q 330 -103 292 -172 q 403 22 368 -33 q 476 118 438 76 q 513 152 497 139 q 558 178 529 165 q 619 190 588 190 q 640 183 632 190 q 651 160 649 175 q 655 130 654 146 q 653 94 656 114 q 649 60 651 74 q 644 31 647 46 q 640 14 642 17 q 624 -168 622 -103 q 663 -314 624 -261 q 788 -353 703 -367 q 939 -265 860 -342 q 1160 69 1061 -149 q 1185 132 1175 104 q 1224 342 1224 239 q 1149 577 1222 483 q 956 703 1076 671 q 863 719 915 714 q 831 724 832 722 m 625 153 q 626 153 626 153 q 625 153 626 153 z "},"X":{"ha":986,"x_min":11,"x_max":1297,"o":"m 229 701 q 72 685 158 719 q 49 674 60 679 q 32 665 39 669 q 20 658 25 661 q 14 653 15 656 q 13 651 13 651 q 36 658 13 651 q 90 674 60 665 q 135 685 121 682 q 206 683 172 690 q 264 663 239 676 q 312 622 289 650 q 351 571 335 594 q 382 504 367 547 q 406 432 397 461 q 426 351 415 403 q 442 272 438 300 q 457 192 447 244 q 458 179 458 183 q 192 -276 329 -17 q 103 -462 96 -458 q 135 -422 107 -465 q 217 -292 164 -378 q 469 121 410 29 q 480 53 471 107 q 492 -19 489 0 q 506 -87 496 -39 q 522 -158 515 -135 q 542 -219 529 -181 q 567 -281 554 -258 q 597 -328 579 -303 q 633 -371 614 -354 q 754 -411 685 -417 q 854 -379 800 -407 q 1019 -255 940 -333 q 1157 -93 1099 -176 q 1261 81 1213 -12 q 1290 144 1297 147 q 1250 88 1285 142 q 1136 -76 1178 -21 q 833 -347 986 -271 q 681 -364 740 -394 q 608 -284 635 -340 q 558 -144 581 -228 q 497 164 542 -79 q 765 525 631 364 q 836 606 799 564 q 886 663 874 647 q 897 680 899 678 q 878 669 896 682 q 823 622 860 656 q 744 544 786 588 q 486 221 615 407 q 463 335 474 289 q 434 442 453 381 q 395 545 415 504 q 343 624 375 586 q 272 683 311 663 q 229 701 251 694 z "},"Y":{"ha":949,"x_min":-68,"x_max":950,"o":"m 842 -46 q 804 -57 842 -47 q 719 -80 767 -67 q 654 -99 671 -93 q 638 -104 646 -101 q 540 -326 607 -194 q 425 -486 485 -437 q 276 -515 353 -547 q 247 -453 244 -501 q 283 -321 253 -379 q 364 -221 313 -262 q 471 -151 415 -179 q 600 -99 526 -124 q 699 239 618 -46 q 786 453 721 315 q 531 154 644 263 q 429 72 474 100 q 382 49 406 57 q 328 47 358 42 q 279 79 299 51 q 256 264 240 136 q 285 421 263 322 q 315 561 308 519 q 317 576 315 564 q 321 596 319 588 q 324 617 322 604 q 323 640 325 631 q 317 658 321 649 q 306 673 314 668 q 286 679 299 678 q 224 664 264 681 q 75 579 167 640 q 36 542 67 571 q -13 497 6 514 q -53 465 -32 479 q -67 460 -65 456 l -61 467 l -61 465 q -57 469 -57 468 q 4 532 -39 486 q 64 592 47 578 q 343 644 319 779 q 340 554 349 611 q 313 411 335 510 q 286 256 292 313 q 306 93 274 139 q 408 101 333 54 q 504 181 450 128 q 585 265 546 221 q 672 369 625 308 q 742 459 719 429 q 822 569 764 489 q 890 665 879 649 q 918 703 897 678 q 927 695 921 700 q 935 690 933 690 q 940 683 938 686 q 949 676 943 681 l 949 675 q 939 664 944 669 q 881 556 921 639 q 758 293 810 411 q 735 224 750 276 q 644 -85 660 -36 q 647 -83 644 -85 q 763 -56 686 -72 q 842 -46 839 -40 m -64 460 m 593 -121 q 477 -174 526 -147 q 381 -242 428 -201 q 307 -337 333 -282 q 278 -460 281 -392 q 283 -489 276 -481 q 401 -461 343 -512 q 510 -307 456 -415 q 593 -121 571 -185 z "},"Z":{"ha":1192,"x_min":83,"x_max":1631,"o":"m 129 -369 q 129 -369 129 -369 m 315 -192 q 172 -329 229 -289 q 132 -351 149 -346 q 193 -246 146 -287 q 315 -192 240 -204 m 400 -156 q 665 185 496 -43 q 798 184 700 182 q 894 194 896 186 q 693 219 893 211 q 829 397 794 356 q 1058 599 919 503 q 1244 664 1201 625 q 1253 692 1258 674 q 1224 710 1249 711 q 1156 693 1197 710 q 1031 624 1099 669 q 676 592 878 594 q 321 614 474 590 q 295 619 308 617 q 276 622 282 621 q 262 624 269 622 q 253 625 254 625 q 251 625 253 625 q 321 606 250 621 q 638 572 449 578 q 979 586 828 567 q 800 422 865 499 q 643 221 761 378 q 406 219 513 225 q 325 206 318 214 q 410 193 332 199 q 615 185 489 186 q 349 -154 444 -42 q 188 -203 250 -158 q 100 -321 125 -247 q 106 -389 83 -372 q 157 -383 122 -399 q 209 -352 182 -372 q 249 -319 236 -332 q 290 -278 261 -307 q 372 -187 329 -239 q 597 -222 456 -187 q 760 -261 739 -257 q 917 -289 803 -268 q 1093 -320 1031 -310 q 1249 -342 1156 -331 q 1419 -358 1342 -354 q 1544 -360 1458 -361 q 1629 -351 1631 -358 q 1575 -350 1628 -350 q 1359 -335 1478 -349 q 1167 -309 1240 -322 q 949 -268 1093 -296 q 760 -232 806 -240 q 601 -193 726 -225 q 400 -156 475 -161 z "},"a":{"ha":267,"x_min":-50,"x_max":272,"o":"m 161 122 q 129 90 150 111 q 90 53 108 69 q 56 24 72 36 q -21 17 4 -17 q -7 142 -50 56 q 92 257 33 226 q 167 260 133 279 q 188 240 178 251 q 197 224 193 232 q 200 213 200 215 q 200 208 200 210 q 192 215 200 208 q 174 231 185 222 q 157 242 163 240 q 88 219 125 256 q 10 79 28 163 q 8 70 8 75 q 6 58 7 65 q 6 44 6 50 q 10 40 7 39 q 31 54 13 40 q 88 106 51 71 q 135 150 124 140 q 138 153 136 150 q 199 167 183 194 q 203 154 203 158 q 199 116 204 135 q 185 75 194 97 q 172 42 176 53 q 201 72 178 46 q 244 119 224 97 q 265 140 264 142 q 251 103 271 136 q 217 53 231 71 q 210 43 215 51 q 202 31 206 35 q 192 19 199 26 q 179 9 185 13 q 166 3 174 6 q 151 1 158 0 q 140 11 143 3 q 138 32 136 19 q 142 54 139 44 q 149 77 144 64 q 153 92 153 90 q 157 106 154 94 q 161 122 160 117 z "},"b":{"ha":258,"x_min":-28,"x_max":240,"o":"m -6 32 q -19 38 -12 32 q -25 49 -26 44 q -22 86 -26 56 q 85 560 35 404 q 90 578 86 564 q 97 597 94 592 q 103 615 99 603 q 113 633 108 626 q 124 646 117 639 q 138 656 131 653 q 174 635 165 669 q 174 574 182 601 q 83 315 153 469 q 54 260 58 260 q 69 321 50 260 q 86 374 71 325 q 109 447 101 422 q 127 511 117 471 q 142 579 138 551 q 146 618 147 613 q 132 585 142 611 q 32 163 85 457 q 26 132 28 142 q 46 161 43 158 q 135 256 94 235 q 201 254 171 276 q 234 199 228 236 q 225 126 240 163 q 122 22 193 49 q 40 24 76 4 q 32 32 25 32 q 50 31 36 32 q 75 28 69 26 q 151 63 118 31 q 199 136 185 94 q 206 189 210 163 q 183 228 201 215 q 136 215 164 239 q 94 169 114 197 q 53 104 75 142 q 19 49 32 67 q -6 32 8 32 m 13 56 z "},"c":{"ha":192,"x_min":-18,"x_max":197,"o":"m 190 138 q 185 115 197 133 q 161 83 172 97 q 46 8 104 19 q -2 26 14 3 q -16 82 -18 49 q -8 144 -14 115 q 54 260 13 228 q 84 272 67 271 q 114 261 101 272 q 132 233 122 254 q 135 208 142 211 q 125 217 132 207 q 108 236 118 226 q 90 246 99 246 q 64 224 79 246 q 44 185 54 210 q 24 69 18 118 q 26 58 25 61 q 30 50 26 54 q 40 46 33 46 q 97 69 60 49 q 176 129 131 89 q 190 138 189 139 z "},"d":{"ha":289,"x_min":-28,"x_max":379,"o":"m 14 40 q 15 39 14 40 q 14 40 15 39 m 342 617 q 342 617 342 617 m 336 432 q 347 461 342 446 q 360 506 351 476 q 372 560 368 536 q 378 608 376 585 q 370 643 379 632 q 343 650 361 654 q 308 611 325 646 q 246 404 282 553 q 206 219 225 319 q 174 260 197 244 q 122 269 151 276 q 31 197 74 258 q -26 61 -22 126 q -24 35 -28 47 q -13 14 -21 22 q 7 3 -6 6 q 60 22 29 -3 q 160 136 115 67 q 182 186 183 174 q 163 172 182 194 q 38 51 83 85 q 15 40 24 42 q 18 83 8 49 q 55 170 29 129 q 113 232 81 211 q 146 244 131 244 q 169 238 158 244 q 190 221 179 231 q 203 208 200 211 q 156 -87 164 11 q 156 -122 151 -124 q 161 -114 157 -121 q 190 -4 169 -92 q 228 164 200 36 q 281 390 257 292 q 331 561 306 489 q 343 593 338 581 q 308 442 339 549 q 294 397 306 432 q 254 251 249 253 q 282 300 258 250 q 285 306 283 303 q 336 432 311 364 z "},"e":{"ha":193,"x_min":-35,"x_max":203,"o":"m 194 138 q 167 81 203 132 q 75 -4 122 18 q 27 -10 50 -17 q -6 18 4 -3 q 8 189 -35 82 q 86 274 42 269 q 121 254 111 276 q 121 210 131 232 q 92 165 111 185 q 63 142 78 150 q 42 133 49 135 q 33 132 35 132 q 37 140 32 135 q 53 156 42 144 q 74 181 64 167 q 92 240 104 224 q 61 210 79 240 q 25 58 18 136 q 26 40 25 46 q 33 29 28 35 q 46 24 38 24 q 103 54 67 24 q 149 96 124 69 q 164 110 156 101 q 176 124 172 119 q 185 132 181 128 q 191 137 189 136 q 194 138 193 138 z "},"f":{"ha":108,"x_min":-71,"x_max":186,"o":"m 164 550 q 165 544 186 550 q 124 478 147 533 q 62 290 89 393 q 17 73 35 186 q -6 -149 -1 -40 q -7 -187 -7 -181 q 7 -149 -1 -176 q 20 -56 10 -135 q 40 94 31 24 q 53 165 50 165 q 60 138 58 165 q 61 74 63 111 q 58 -2 60 36 q 53 -67 56 -40 l 51 -93 q 50 -103 50 -96 q 44 -144 47 -129 q 35 -183 42 -160 q 18 -219 29 -206 q -8 -235 7 -232 q -26 22 -71 -247 q -25 28 -25 26 q 82 439 17 279 q 101 482 94 468 q 122 516 107 496 q 151 546 136 536 q 164 550 158 550 z "},"g":{"ha":254,"x_min":-15,"x_max":228,"o":"m 89 24 q 17 33 49 3 q -8 108 -15 63 q 69 233 0 182 q 130 262 97 254 q 199 256 163 269 q 206 247 213 247 q 189 249 201 247 q 163 251 168 253 q 83 217 118 249 q 31 143 47 186 q 22 94 19 121 q 43 54 24 67 q 72 54 57 46 q 106 85 90 65 q 129 119 121 104 q 153 163 138 133 q 174 201 168 192 q 189 224 183 217 q 203 229 190 229 q 219 222 215 229 q 224 196 226 214 q 133 -296 181 -132 q 128 -313 132 -299 q 123 -333 125 -328 q 116 -350 121 -337 q 108 -368 111 -362 q 98 -381 104 -374 q 83 -392 92 -387 q 68 -393 78 -394 q 56 -256 24 -383 q 57 -249 57 -250 q 118 -54 79 -154 q 144 1 140 0 q 133 -58 149 3 q 119 -110 132 -62 q 101 -183 107 -158 q 87 -247 94 -207 q 76 -314 79 -286 q 75 -354 74 -346 q 88 -322 79 -346 q 175 126 133 -186 q 89 24 133 50 m 186 206 z "},"h":{"ha":278,"x_min":-25,"x_max":294,"o":"m 289 140 q 258 88 294 136 q 206 25 221 39 q 194 17 201 21 q 180 10 188 13 q 166 11 172 7 q 157 26 160 15 q 158 65 154 39 q 172 130 160 76 q 185 214 185 183 q 179 231 185 226 q 166 232 174 235 q 152 226 158 229 q 140 218 146 222 q 97 171 117 199 q 56 106 78 143 q 22 49 35 68 q -15 35 4 24 q -20 40 -18 38 q -23 47 -22 43 q -24 53 -24 50 q -24 61 -25 56 q -24 69 -24 67 q -22 77 -24 71 q -21 86 -21 83 q 86 560 36 406 q 92 578 88 564 q 98 597 96 592 q 105 615 100 603 q 115 633 110 626 q 126 646 119 639 q 139 656 132 653 q 175 635 167 669 q 175 574 183 601 q 85 315 154 471 q 56 260 60 260 q 71 321 51 260 q 88 374 72 325 q 111 446 104 422 q 128 510 118 469 q 143 579 139 551 q 147 618 149 613 q 133 585 143 611 q 72 349 108 518 q 31 136 67 324 q 118 246 78 214 q 158 265 136 261 q 204 254 179 269 q 210 165 225 236 q 196 112 208 156 q 181 42 183 68 q 181 33 181 40 q 218 67 192 40 q 266 118 244 94 q 289 140 288 142 m -11 68 l -14 67 q -11 68 -12 67 m 14 56 z "},"i":{"ha":113,"x_min":-31,"x_max":119,"o":"m 38 349 q 67 360 42 349 q 76 356 76 365 q 65 335 76 343 q 39 326 53 326 q 8 338 8 326 q 38 349 7 349 m 13 38 m 13 53 q 44 85 19 60 q 88 126 69 110 q 110 140 107 143 q 83 82 118 133 q 79 76 82 81 q 11 7 40 18 q -22 22 -15 -4 q -24 79 -29 47 q -3 160 -18 108 q 18 238 13 213 q 21 258 21 253 q 31 261 21 274 q 33 257 32 258 q 36 185 43 236 q 24 121 33 165 q 13 53 15 76 m 0 44 q 0 44 0 44 z "},"j":{"ha":72,"x_min":-167,"x_max":86,"o":"m 39 378 q 79 369 68 382 q 71 361 85 364 q 39 358 61 358 q 12 362 19 358 q 12 370 4 365 q 39 378 19 375 m 26 285 q 33 285 32 300 q 26 185 35 260 q -68 -325 -10 -149 q -69 -329 -68 -326 q -75 -345 -72 -339 q -83 -363 -78 -351 q -92 -381 -87 -375 q -104 -393 -97 -387 q -119 -398 -111 -399 q -137 -389 -128 -397 q -140 -256 -167 -365 q -137 -249 -139 -250 q -76 -53 -115 -151 q -49 1 -54 0 q -58 -58 -43 3 q -72 -112 -61 -71 q -90 -182 -83 -154 q -103 -249 -96 -210 q -114 -315 -111 -287 q -117 -344 -117 -336 q -106 -312 -114 -339 q -60 -132 -82 -239 q -17 87 -37 -25 q 21 264 3 199 q 26 285 24 278 z "},"k":{"ha":292,"x_min":-24,"x_max":293,"o":"m 217 239 q 204 183 222 213 q 117 122 175 136 q 119 57 111 86 q 157 33 128 28 q 233 83 186 39 q 264 113 249 97 q 285 135 279 129 q 292 140 290 140 q 289 131 293 139 q 273 107 285 124 q 246 71 261 90 q 223 48 233 58 q 196 26 213 38 q 163 11 179 15 q 116 18 135 3 q 92 60 97 33 q 97 140 85 96 q 175 201 154 164 q 183 228 186 221 q 157 228 172 235 q 113 187 132 210 q 65 115 94 164 q 33 63 36 67 q 17 39 22 44 q -6 33 8 29 q -21 49 -19 38 q -18 86 -22 56 q 90 560 39 406 q 96 577 92 564 q 102 597 100 590 q 109 615 104 603 q 118 633 114 626 q 128 646 122 639 q 142 656 135 653 q 169 651 156 663 q 176 574 189 635 q 88 315 157 471 q 59 260 63 260 q 75 321 56 260 q 91 373 75 322 q 114 447 107 424 q 131 510 121 469 q 147 579 142 550 q 151 618 151 613 q 147 611 149 614 q 99 457 128 574 q 31 132 65 319 q 63 181 50 163 q 96 222 75 200 q 140 260 117 244 q 186 265 158 272 q 217 239 214 258 m -10 68 q -11 67 -10 68 q -10 68 -10 67 m 17 56 m 183 229 l 183 231 q 183 229 183 231 z "},"l":{"ha":136,"x_min":-22,"x_max":186,"o":"m 139 136 q 118 92 144 133 q 71 29 92 50 q 68 26 71 28 q -7 -6 22 -24 q -14 1 -11 -3 q -18 10 -17 4 q -21 19 -19 15 q -22 29 -22 22 q -22 40 -22 36 q -21 53 -22 44 q -19 64 -19 61 q -18 75 -19 67 q -17 85 -17 83 q 86 561 33 394 q 92 578 88 564 q 98 598 96 592 q 105 616 100 604 q 115 634 110 628 q 126 647 119 640 q 140 657 132 654 q 177 637 168 671 q 178 574 186 603 q 88 315 157 467 q 61 263 69 275 q 59 260 60 261 q 57 261 58 260 q 58 278 56 265 q 99 410 65 301 q 143 579 133 519 q 147 611 147 604 q 136 585 143 606 q 124 549 131 569 q 98 459 110 504 q 72 350 86 414 q 52 260 58 286 q 29 148 46 233 q 11 54 13 63 q 10 19 6 26 l 10 18 q 31 26 14 17 q 82 72 53 42 q 111 106 97 89 q 131 131 125 124 q 139 136 136 138 z "},"m":{"ha":501,"x_min":-43,"x_max":506,"o":"m 197 108 q 201 110 200 110 q 222 126 211 117 q 240 142 233 135 q 258 162 246 149 q 275 179 271 175 q 293 199 279 183 q 314 221 307 214 q 333 238 321 228 q 356 257 344 249 q 391 265 371 269 q 410 236 411 261 q 390 144 410 203 q 372 49 369 86 q 374 35 374 39 q 379 28 375 32 q 390 29 383 24 q 428 56 404 35 q 451 82 433 61 q 485 119 469 103 q 500 135 500 136 q 480 95 506 132 q 442 43 454 58 q 357 17 383 -22 q 349 33 351 24 q 345 55 346 43 q 345 76 344 67 q 349 100 346 85 q 353 122 351 115 q 358 143 354 128 q 363 161 363 158 q 368 181 364 167 q 375 208 372 196 q 378 231 378 219 q 354 211 371 226 q 303 157 339 196 q 246 99 267 118 q 174 78 200 57 q 165 90 168 83 q 161 104 163 97 q 160 122 160 111 q 162 138 161 132 q 165 156 163 144 q 169 173 168 168 q 174 189 171 178 q 178 201 178 200 q 183 217 179 207 q 188 232 186 228 q 158 194 185 229 q 130 155 150 182 q 99 112 110 128 q 69 74 88 96 q 36 35 51 53 q 31 31 35 35 q 26 24 28 26 q 19 18 24 22 q 12 11 15 14 q 4 6 8 8 q -4 2 0 3 q -12 1 -8 1 q -21 2 -17 0 q -29 8 -25 4 q -33 69 -43 24 q 19 208 -25 108 q 71 306 63 308 q 85 290 83 303 q 81 256 88 276 q 65 212 75 236 q 41 161 54 188 q 17 112 28 135 q -1 68 6 89 q -8 35 -8 47 q -5 38 -7 36 q -3 40 -3 40 q 24 69 10 53 q 45 96 38 86 q 69 130 53 106 q 90 160 86 154 q 117 199 96 167 q 153 250 138 231 q 185 285 168 269 q 215 295 197 299 q 233 269 233 292 q 216 194 232 242 q 197 124 200 147 q 197 108 197 113 m 211 258 q 214 261 213 260 q 211 258 213 260 z "},"n":{"ha":342,"x_min":-37,"x_max":347,"o":"m 10 36 q 10 36 10 36 m 217 239 m 33 265 q -25 75 -12 139 q -3 4 -36 8 q 43 29 15 3 q 126 122 75 58 q 192 201 178 186 q 217 226 207 219 q 202 154 214 201 q 188 82 190 107 q 219 3 179 7 q 263 22 239 1 q 319 92 290 46 q 342 135 346 132 q 326 119 340 136 q 292 82 311 103 q 268 57 274 61 q 232 29 246 35 q 218 32 222 26 q 215 51 214 38 q 217 78 215 65 q 223 110 218 92 q 229 135 228 128 q 233 153 231 143 q 240 173 235 156 q 249 202 246 190 q 253 230 251 214 q 249 256 256 246 q 231 268 243 265 q 193 254 214 271 q 102 153 158 224 q 18 56 46 83 q 10 49 13 51 q 40 181 11 85 q 68 265 53 218 q 57 281 72 279 q 33 265 39 282 z "},"o":{"ha":254,"x_min":-22,"x_max":258,"o":"m 221 132 q 251 137 244 138 q 250 132 257 136 q 225 119 243 128 q 179 103 204 111 q 140 47 164 71 q 88 10 117 22 q 40 0 64 0 q -2 22 13 0 q -14 78 -17 44 q -6 113 -12 94 q -14 132 -11 121 q 3 203 -21 165 q 42 246 18 226 q 99 274 65 265 q 164 261 132 283 q 199 163 210 232 q 189 125 196 143 q 208 129 197 126 q 221 132 219 132 m 146 117 q 163 168 158 142 q 149 224 167 204 q 97 235 132 244 q 48 206 71 228 q 19 156 25 183 q 49 188 33 175 q 67 197 64 200 q 56 181 68 196 q 24 128 35 151 q 146 117 46 100 m 14 96 q 14 54 10 74 q 39 32 19 33 q 75 40 58 31 q 104 61 92 50 q 129 89 118 74 q 14 96 50 72 z "},"p":{"ha":331,"x_min":-124,"x_max":335,"o":"m 72 261 q 4 -24 92 257 q -124 -385 -83 -306 q -43 -24 -110 -268 q 72 261 24 221 m 1 3 q 4 22 -1 3 q 14 51 10 42 q 73 174 38 114 q 150 257 108 233 q 235 249 199 283 q 260 160 271 215 q 224 76 250 117 q 296 108 268 89 q 314 124 306 115 q 325 138 322 133 q 329 140 328 142 q 324 121 335 138 q 306 96 314 104 q 200 44 274 64 q 165 10 185 26 q 61 -22 96 -54 q 51 15 47 -6 q 72 46 56 36 q 171 68 96 60 q 224 167 213 118 q 212 221 229 200 q 165 226 194 242 q 117 182 144 215 q 78 130 97 160 q 39 64 60 100 q 10 14 18 28 q 1 3 3 3 m 135 31 q 129 31 132 31 q 122 28 129 29 q 109 26 114 28 q 97 23 104 25 q 87 18 90 21 q 83 11 83 15 q 85 6 83 10 q 86 3 86 4 q 135 31 107 4 z "},"q":{"ha":235,"x_min":-25,"x_max":218,"o":"m 154 251 q 76 216 111 247 q 24 143 42 185 q 16 94 14 121 q 36 56 18 68 q 100 90 63 39 q 101 92 101 92 q 139 155 117 111 q 176 218 161 199 q 199 229 182 229 q 217 211 215 229 q 208 172 218 203 q 197 133 207 167 q 185 92 188 100 q 173 53 182 83 q 160 10 164 22 q 149 -29 157 -1 q 138 -72 142 -57 q 128 -112 135 -87 q 119 -156 122 -137 q 110 -197 115 -175 q 103 -240 106 -219 q 99 -258 103 -242 q 95 -283 96 -274 q 94 -307 94 -293 q 99 -328 94 -321 q 114 -335 104 -335 q 125 -333 125 -333 q 121 -339 126 -336 q 108 -342 115 -342 q 97 -340 101 -343 q 76 -275 76 -328 q 83 -192 76 -222 q 140 76 100 -72 q 82 22 113 39 q 8 31 40 0 q -18 110 -25 63 q 61 235 -10 183 q 122 263 89 256 q 190 256 154 271 q 196 247 207 247 q 179 249 192 247 q 154 251 160 251 m 178 207 q 178 206 178 207 q 178 207 178 206 z "},"r":{"ha":328,"x_min":-18,"x_max":331,"o":"m 188 285 m 115 471 q 90 451 107 469 q 36 311 32 392 q 50 293 36 296 q 69 334 50 293 q 100 403 89 375 q 115 450 111 431 q 115 471 118 465 m 117 471 m 303 126 q 328 142 326 144 q 311 118 329 140 q 267 66 282 83 q 222 19 251 49 q 165 -26 192 -10 q 143 -37 156 -33 q 117 -42 131 -42 q 95 -35 104 -43 q 83 -11 86 -28 q 100 74 81 17 q 142 172 114 110 q 182 260 171 233 q 188 279 188 276 q 188 283 188 283 q 156 279 181 286 q 125 269 153 278 q 78 256 97 260 q 42 256 58 253 l -11 176 l 32 258 q 4 288 11 267 q 35 432 -17 349 q 103 496 67 483 q 131 494 118 503 q 144 468 144 485 q 114 378 144 436 q 61 292 88 328 q 111 304 71 293 q 125 310 113 306 q 144 315 138 314 q 163 319 150 317 q 184 322 176 322 q 201 319 192 321 q 215 311 210 318 q 224 294 221 304 q 217 246 228 276 q 175 155 204 215 q 133 61 146 94 q 117 -12 114 13 q 150 -3 128 -15 q 242 71 183 18 q 303 126 300 124 z "},"s":{"ha":222,"x_min":-35,"x_max":228,"o":"m 222 135 q 192 85 228 131 q 94 -36 157 40 q 99 -53 97 -44 q 19 -160 114 -124 q -8 -167 4 -167 q -27 -151 -22 -167 q -22 -124 -32 -135 q 38 -50 -10 -101 q 53 -33 46 -42 q 24 20 47 -21 q -7 89 0 61 q 64 278 -35 188 q 158 328 115 325 q 189 318 178 329 q 199 288 200 307 q 192 267 196 265 q 190 274 190 267 q 187 289 189 281 q 183 300 185 297 q 170 310 179 308 q 151 308 161 313 q 130 298 140 304 q 110 283 119 292 q 94 268 100 274 q 83 258 88 263 q 28 99 4 176 q 41 64 32 81 q 63 27 50 47 q 81 -4 75 7 q 120 35 100 15 q 157 72 140 56 q 179 94 174 89 q 222 135 219 136 m 7 -143 q 7 -144 7 -144 q 7 -143 7 -144 m 24 -121 q 63 -74 60 -104 q 24 -121 36 -106 z "},"t":{"ha":183,"x_min":-271,"x_max":585,"o":"m 124 531 q 115 531 121 553 q 88 428 93 447 q -144 418 1 425 q -269 407 -269 413 q -146 392 -269 396 q 76 390 -22 389 q 46 297 69 368 q 7 173 22 225 q -19 72 -8 121 q -22 59 -19 69 q -26 42 -25 49 q -30 24 -28 36 q -33 3 -32 11 q -34 -15 -33 -4 q -33 -33 -35 -26 q -28 -48 -31 -40 q -19 -60 -25 -56 q -4 -65 -12 -64 q 6 -66 -1 -68 q 15 -65 13 -64 q 23 -61 17 -65 q 31 -57 29 -57 q 39 -52 33 -57 q 45 -47 44 -47 q 51 -41 46 -46 q 57 -36 56 -36 q 128 44 88 -7 q 186 136 193 131 q 153 106 183 138 q 85 37 122 75 q 36 -11 47 -1 q 4 -32 15 -28 q 7 17 1 -18 q 50 183 15 61 q 106 392 92 332 q 458 394 351 396 q 583 394 583 392 q 570 401 583 397 q 527 411 557 406 q 460 419 497 417 q 114 429 325 435 q 124 531 126 499 z "},"u":{"ha":292,"x_min":-17,"x_max":294,"o":"m 217 249 q 237 233 232 249 q 237 192 242 218 q 225 143 232 167 q 210 92 218 119 q 199 54 201 65 q 200 56 200 56 q 239 90 217 68 q 275 126 261 113 q 292 139 289 140 q 278 113 293 136 q 241 61 264 89 q 201 24 218 33 q 176 26 186 15 q 168 54 167 36 q 184 126 171 81 q 200 193 197 171 q 147 135 182 175 q 89 77 113 96 q 32 49 65 58 q -6 67 4 38 q -10 131 -15 96 q 42 267 17 274 q 47 250 49 263 q 41 215 46 238 q 30 169 36 192 q 20 124 24 147 q 19 89 17 101 q 24 79 22 81 q 74 109 40 78 q 143 183 107 140 q 186 232 179 226 q 217 249 204 249 m 219 213 m 189 49 z "},"v":{"ha":257,"x_min":-24,"x_max":374,"o":"m 357 460 q 369 472 367 472 q 367 454 372 471 q 319 369 354 425 q 74 49 188 156 q 67 43 72 49 q 60 35 63 38 q 51 28 57 33 q 42 22 46 24 q 32 16 38 19 q 22 12 26 13 q 11 11 17 11 q 0 13 6 11 q -10 19 -6 15 q -19 37 -15 26 q -23 56 -22 47 q -22 80 -24 65 q -19 103 -21 94 q -15 126 -18 111 q -11 144 -11 142 q -7 161 -10 149 q -2 183 -4 174 q 1 205 0 193 q -1 225 1 217 q -11 236 -4 233 q -16 238 -14 238 q -19 239 -18 239 q -21 240 -21 239 q -18 243 -22 242 q 3 240 -6 246 q 19 193 19 226 q 13 117 19 160 q 11 54 7 74 q 13 46 11 53 q 15 47 14 47 q 72 99 32 56 q 160 202 115 146 q 263 337 204 258 q 342 440 322 415 q 357 460 351 453 z "},"w":{"ha":333,"x_min":-36,"x_max":308,"o":"m 146 90 q 146 86 146 89 q 146 73 146 78 q 147 59 146 68 q 149 47 147 50 q 153 38 150 44 q 161 34 157 32 q 172 36 165 36 q 233 83 206 49 q 275 154 261 117 q 274 247 296 210 q 265 258 271 250 q 255 271 260 265 q 251 276 250 276 q 256 277 251 278 q 269 271 260 276 q 286 257 278 265 q 307 194 307 232 q 294 126 307 157 q 264 69 282 94 q 168 -3 218 4 q 136 1 149 -7 q 118 26 124 8 q 110 60 113 44 q 108 101 108 76 q 4 38 49 57 q -18 35 -6 33 q -32 50 -31 38 q -21 133 -35 86 q 14 208 -7 179 q 50 235 35 238 q 57 219 58 231 q 47 185 56 207 q 29 142 39 163 q 10 102 19 122 q 0 74 1 82 q 0 72 0 74 q 111 151 50 101 q 124 156 113 153 q 137 152 132 156 q 144 140 142 149 q 146 126 146 132 q 146 108 146 121 q 146 90 146 94 z "},"x":{"ha":292,"x_min":-60,"x_max":310,"o":"m -53 -76 q -49 -43 -58 -75 q 39 97 -28 22 q -3 211 6 157 q 11 275 -12 265 q 67 126 29 197 q 86 146 76 136 q 275 279 182 236 q 308 289 306 294 q 306 283 308 288 q 293 271 303 279 q 274 256 283 263 q 246 233 265 249 q 214 207 226 218 q 86 92 142 149 q 118 52 101 69 q 154 25 135 35 q 269 113 185 10 q 307 150 307 158 q 304 138 307 146 q 235 13 281 64 q 142 -15 189 -39 q 58 64 97 7 q -32 -51 1 3 q -35 -56 -33 -53 q -41 -65 -39 -62 q -46 -72 -43 -68 q -50 -76 -49 -75 q -53 -76 -51 -78 z "},"y":{"ha":231,"x_min":-111,"x_max":214,"o":"m -89 -446 q -101 -440 -94 -446 q -106 -431 -107 -433 q -99 -374 -110 -410 q -6 -221 -76 -304 q 50 -160 25 -185 q 107 -10 83 -87 q 122 47 113 10 q 133 97 131 85 q 172 256 168 228 l 171 254 q 138 197 160 236 q 99 128 117 157 q 61 75 81 99 q 49 62 56 68 q 32 50 42 56 q 13 47 22 44 q -3 64 4 50 q -3 172 -14 92 q 6 228 1 203 q 15 265 11 254 q 19 275 18 275 q 18 228 21 275 q 14 138 15 182 q 21 72 13 93 q 50 107 31 76 q 104 202 69 135 q 161 301 139 269 q 173 313 167 308 q 189 321 179 318 q 206 311 199 324 q 207 258 214 299 q 169 88 199 204 q 114 -107 131 -61 q 125 -100 119 -104 q 164 -81 161 -76 q 153 -91 164 -82 q 127 -115 143 -100 q 103 -136 111 -129 q 103 -137 103 -137 q -8 -339 63 -233 q -33 -381 -17 -351 q -61 -426 -50 -411 q -89 -446 -75 -446 m -64 -365 q -37 -319 -46 -333 q 10 -242 -11 -281 q -50 -336 -28 -292 q -64 -365 -60 -354 z "},"z":{"ha":269,"x_min":-71,"x_max":271,"o":"m 251 129 q 269 137 268 139 q 256 124 269 135 q 183 60 215 89 q 189 31 189 46 q 156 -79 192 -18 q 50 -204 111 -157 q 17 -224 35 -215 q -24 -231 -1 -233 q -54 -207 -46 -229 q -26 -119 -69 -178 q 144 53 31 -40 q 75 75 128 76 q 8 74 46 76 q 1 83 4 79 q -3 90 -1 88 q 11 108 0 99 q 106 183 33 129 q 208 257 156 221 l 207 257 l 207 257 l 197 260 q 133 242 175 260 q 14 163 51 207 q 10 156 13 160 l 4 151 q 8 164 1 151 q 18 181 14 176 q 163 279 67 247 q 216 282 189 290 q 231 240 243 274 q 222 231 228 235 q 208 220 217 226 q 196 213 199 214 q 64 108 99 138 q 174 76 140 117 q 181 82 176 79 q 251 129 225 115 m 31 79 l 31 78 l 31 79 m 151 31 q 38 -89 88 -31 q -22 -176 -11 -146 q -24 -187 -24 -183 q -17 -197 -25 -196 q 0 -193 -10 -199 q 17 -183 10 -187 q 28 -175 24 -179 q 124 -61 83 -132 q 151 28 154 -7 q 151 31 151 29 z "}}}
